# xmcd
#
# Track frame offsets: 
#        150
#        29670
#        49080
#        78745
#        105270
#        169375
#        197720
#        229965
#        268715
#        303730
#
# Disc length: 4628 seconds
#
# Revision: 0
# Processed by: cddbd v1.5.2PL0 Copyright (c) Steve Scherf et al.
# Submitted via: ExactAudioCopy v0.99pb4
#
DISCID=8c12120a
DTITLE=Gov't Mule - Pierre's, Fort Wayne (1)
DYEAR=1995
DGENRE=Southern Rock
TTITLE0=Mule
TTITLE1=Rocking Horse
TTITLE2=Mr. Big
TTITLE3=Temporary Saint
TTITLE4=Trane-St. Stephen-Eternity's Breath jam
TTITLE5=Monkey Hill/She's So Heavy jam
TTITLE6=Painted Silver Light
TTITLE7=The Same Thing
TTITLE8=Don't Step On The Grass, Sam
TTITLE9=Born Under A Bad Sign
EXTD=
EXTT0=
EXTT1=
EXTT2=
EXTT3=
EXTT4=
EXTT5=
EXTT6=
EXTT7=
EXTT8=
EXTT9=
PLAYORDER=
